<?xml version="1.0" encoding="utf-8"?>
<!-- Generator: Adobe Illustrator 23.0.0, SVG Export Plug-In . SVG Version: 6.00 Build 0)  -->
<svg version="1.1" id="Capa_1" xmlns="http://www.w3.org/2000/svg" xmlns:xlink="http://www.w3.org/1999/xlink" x="0px" y="0px"
	 viewBox="0 0 18 18" style="enable-background:new 0 0 18 18;" xml:space="preserve">
<style type="text/css">
	.st0{fill:#FFFFFF;}
</style>
<g>
	<g>
		<path class="st0" d="M17.3,14c0,0.3,0,0.5-0.2,0.7L14.7,17c-0.1,0.1-0.2,0.2-0.4,0.3c-0.2,0.1-0.3,0.1-0.5,0.2c0,0,0,0-0.1,0
			c-0.1,0-0.1,0-0.2,0c-0.2,0-0.6,0-1.1-0.1s-1.1-0.3-1.8-0.6C9.8,16.5,9,16,8.1,15.4C7.2,14.8,6.2,14,5.2,13
			c-0.8-0.8-1.5-1.6-2-2.3c-0.5-0.7-1-1.4-1.3-2C1.5,8,1.3,7.4,1.1,6.9S0.8,6,0.8,5.6C0.7,5.2,0.7,4.9,0.7,4.7c0-0.2,0-0.3,0-0.4
			c0-0.2,0.1-0.3,0.2-0.5C1,3.7,1.1,3.6,1.2,3.5l2.3-2.3C3.7,1,3.9,0.9,4.1,0.9c0.2,0,0.3,0,0.4,0.1s0.2,0.2,0.3,0.3l1.9,3.6
			c0.1,0.2,0.1,0.4,0.1,0.6S6.6,5.9,6.5,6.1L5.6,6.9c0,0,0,0.1-0.1,0.1c0,0.1,0,0.1,0,0.1c0,0.2,0.2,0.5,0.3,0.8
			c0.1,0.3,0.4,0.6,0.6,1c0.3,0.4,0.7,0.9,1.2,1.4c0.5,0.5,1,1,1.4,1.3c0.4,0.3,0.8,0.5,1,0.7c0.3,0.1,0.5,0.2,0.6,0.3l0.2,0
			c0,0,0.1,0,0.1,0c0.1,0,0.1,0,0.1-0.1l1-1c0.2-0.2,0.5-0.3,0.7-0.3c0.2,0,0.4,0,0.5,0.1h0l3.4,2C17.1,13.5,17.2,13.7,17.3,14z"/>
	</g>
</g>
</svg>
