<?xml version="1.0" encoding="utf-8"?>
<!-- Generator: Adobe Illustrator 23.0.0, SVG Export Plug-In . SVG Version: 6.00 Build 0)  -->
<svg version="1.1" id="Capa_1" xmlns="http://www.w3.org/2000/svg" xmlns:xlink="http://www.w3.org/1999/xlink" x="0px" y="0px"
	 viewBox="0 0 41 41" style="enable-background:new 0 0 41 41;" xml:space="preserve">
<style type="text/css">
	.st0{fill:#FFFFFF;}
</style>
<path class="st0" d="M35,6c-3.9-3.9-9-6-14.5-6h0C9.2,0,0,9.2,0,20.5S9.2,41,20.5,41S41,31.8,41,20.5C41,15,38.9,9.9,35,6z
	 M21.4,29.3v-7.9h9c0,3-0.5,5.9-1.4,8.8C26.5,29.6,24,29.3,21.4,29.3z M26.1,38.4c1.7-1.8,3.1-4,4-6.3c1.3,0.3,2.7,0.8,4,1.3
	C31.9,35.7,29.2,37.5,26.1,38.4z M21.4,39.2V31c2.4,0,4.7,0.3,7.1,0.7C26.7,36,24.2,38.7,21.4,39.2z M30.1,8.9
	c-0.8-2.3-2.2-4.5-3.9-6.3c3,1,5.8,2.7,8,5C32.8,8.1,31.5,8.6,30.1,8.9z M30.4,19.7h-9v-7.9c2.6,0,5.1-0.3,7.6-0.8
	C29.9,13.7,30.3,16.7,30.4,19.7z M21.4,10V1.8c2.8,0.5,5.4,3.2,7.1,7.5C26.1,9.7,23.7,10,21.4,10z M39.2,21.4
	c-0.2,3.9-1.5,7.6-4,10.7c-1.5-0.7-3.1-1.2-4.6-1.6c0.9-2.9,1.4-6,1.5-9H39.2z M39.2,19.7h-7.1c-0.1-3.1-0.6-6.2-1.5-9.1
	c1.6-0.4,3.1-0.9,4.6-1.6C37.7,12.1,39.1,15.8,39.2,19.7z M10.9,32c0.8,2.4,2.2,4.6,4,6.4c-3.1-1-5.8-2.7-8-5
	C8.1,32.8,9.5,32.4,10.9,32z M10.6,21.3h9v7.9c-2.6,0-5.1,0.3-7.6,0.8C11.1,27.2,10.7,24.3,10.6,21.3z M19.6,31v8.2
	c-2.8-0.5-5.4-3.2-7.1-7.5C14.9,31.3,17.3,31,19.6,31z M10.4,30.4c-1.6,0.4-3.1,0.9-4.6,1.6c-2.4-3.1-3.8-6.8-4-10.7l7.1,0
	C9,24.4,9.4,27.5,10.4,30.4z M1.8,19.6c0.2-3.9,1.5-7.6,4-10.7c1.5,0.7,3.1,1.2,4.6,1.6c-0.9,2.9-1.4,6-1.5,9H1.8z M19.6,11.7v7.9
	h-9c0-3,0.5-5.9,1.4-8.8C14.5,11.4,17,11.7,19.6,11.7z M6.9,7.6c2.2-2.3,4.9-4,8-5c-1.8,1.8-3.1,4-4,6.3C9.6,8.6,8.2,8.1,6.9,7.6z
	 M19.6,1.8V10c-2.4,0-4.7-0.3-7.1-0.7C14.3,5,16.8,2.3,19.6,1.8z"/>
</svg>
