<svg id="Capa_1" xmlns="http://www.w3.org/2000/svg" viewBox="0 0 18 18">
    <style>
        .st0{fill:#fff}
    </style>
    <path class="st0" d="M17.3 14c0 .3 0 .5-.2.7L14.7 17c-.1.1-.2.2-.4.3-.2.1-.3.1-.5.2H13.5c-.2 0-.6 0-1.1-.1s-1.1-.3-1.8-.6c-.8-.3-1.6-.8-2.5-1.4-.9-.6-1.9-1.4-2.9-2.4-.8-.8-1.5-1.6-2-2.3-.5-.7-1-1.4-1.3-2-.4-.7-.6-1.3-.8-1.8S.8 6 .8 5.6c-.1-.4-.1-.7-.1-.9v-.4c0-.2.1-.3.2-.5l.3-.3 2.3-2.3c.2-.2.4-.3.6-.3.2 0 .3 0 .4.1l.3.3 1.9 3.6c.1.2.1.4.1.6s-.2.4-.3.6l-.9.8s0 .1-.1.1v.1c0 .2.2.5.3.8.1.3.4.6.6 1 .3.4.7.9 1.2 1.4.5.5 1 1 1.4 1.3.4.3.8.5 1 .7.3.1.5.2.6.3H10.9c.1 0 .1 0 .1-.1l1-1c.2-.2.5-.3.7-.3.2 0 .4 0 .5.1l3.4 2c.5.2.6.4.7.7z"/>
</svg>
