<svg id="Capa_1" xmlns="http://www.w3.org/2000/svg" viewBox="0 0 41 41">
    <style>
        .st0{fill:#fff}
    </style>
    <path class="st0" d="M35 6c-3.9-3.9-9-6-14.5-6C9.2 0 0 9.2 0 20.5S9.2 41 20.5 41 41 31.8 41 20.5C41 15 38.9 9.9 35 6zM21.4 29.3v-7.9h9c0 3-.5 5.9-1.4 8.8-2.5-.6-5-.9-7.6-.9zm4.7 9.1c1.7-1.8 3.1-4 4-6.3 1.3.3 2.7.8 4 1.3-2.2 2.3-4.9 4.1-8 5zm-4.7.8V31c2.4 0 4.7.3 7.1.7-1.8 4.3-4.3 7-7.1 7.5zm8.7-30.3c-.8-2.3-2.2-4.5-3.9-6.3 3 1 5.8 2.7 8 5-1.4.5-2.7 1-4.1 1.3zm.3 10.8h-9v-7.9c2.6 0 5.1-.3 7.6-.8.9 2.7 1.3 5.7 1.4 8.7zm-9-9.7V1.8c2.8.5 5.4 3.2 7.1 7.5-2.4.4-4.8.7-7.1.7zm17.8 11.4c-.2 3.9-1.5 7.6-4 10.7-1.5-.7-3.1-1.2-4.6-1.6.9-2.9 1.4-6 1.5-9h7.1zm0-1.7h-7.1c-.1-3.1-.6-6.2-1.5-9.1 1.6-.4 3.1-.9 4.6-1.6 2.5 3.1 3.9 6.8 4 10.7zM10.9 32c.8 2.4 2.2 4.6 4 6.4-3.1-1-5.8-2.7-8-5 1.2-.6 2.6-1 4-1.4zm-.3-10.7h9v7.9c-2.6 0-5.1.3-7.6.8-.9-2.8-1.3-5.7-1.4-8.7zm9 9.7v8.2c-2.8-.5-5.4-3.2-7.1-7.5 2.4-.4 4.8-.7 7.1-.7zm-9.2-.6c-1.6.4-3.1.9-4.6 1.6-2.4-3.1-3.8-6.8-4-10.7h7.1c.1 3.1.5 6.2 1.5 9.1zM1.8 19.6c.2-3.9 1.5-7.6 4-10.7 1.5.7 3.1 1.2 4.6 1.6-.9 2.9-1.4 6-1.5 9H1.8zm17.8-7.9v7.9h-9c0-3 .5-5.9 1.4-8.8 2.5.6 5 .9 7.6.9zM6.9 7.6c2.2-2.3 4.9-4 8-5-1.8 1.8-3.1 4-4 6.3-1.3-.3-2.7-.8-4-1.3zm12.7-5.8V10c-2.4 0-4.7-.3-7.1-.7 1.8-4.3 4.3-7 7.1-7.5z"/>
</svg>
